<svg xmlns="http://www.w3.org/2000/svg" aria-hidden="true" style="position:absolute;width:0;height:0;overflow:hidden"><defs><symbol id="facebook-icon-icon" viewBox="0 0 16 32"><path d="M13.944 6.61c-.831-.166-1.954-.29-2.66-.29-1.912 0-2.036.831-2.036 2.161v2.367h4.778l-.417 4.904H9.247v14.915H3.264V15.752H.189v-4.904h3.075V7.815c0-4.155 1.953-6.482 6.855-6.482 1.703 0 2.95.249 4.57.582l-.747 4.695z"/></symbol><symbol id="linkedin-icon-icon" viewBox="0 0 34 32"><path d="M8.535 4.406c0 1.779-1.354 3.218-3.472 3.218-2.035 0-3.39-1.439-3.348-3.218-.042-1.865 1.312-3.263 3.388-3.263 2.077 0 3.391 1.398 3.432 3.263zm-6.65 26.478V10.166h6.439v20.717l-6.439.001zM13.485 16.778c0-2.584-.085-4.787-.17-6.609h5.593l.297 2.838h.127c.847-1.314 2.965-3.303 6.397-3.303 4.236 0 7.414 2.796 7.414 8.895v12.288h-6.439V19.405c0-2.671-.931-4.491-3.261-4.491-1.78 0-2.838 1.229-3.261 2.414-.17.424-.254 1.016-.254 1.611v11.948h-6.439V16.778h-.003z"/></symbol><symbol id="squares-bg-icon" viewBox="0 0 31 32"><path fill="#03a9f4" d="M3.478 0h-.259c-.163 0-.329.033-.488.057l-.194.028c-.196.026-.392.061-.54.089l-.181.03a4.04 4.04 0 0 0-.377.072 3.544 3.544 0 0 0-.242.078 2.623 2.623 0 0 0-.283.122C.836.525.764.581.696.644L.652.683a1.343 1.343 0 0 0-.301.407l-.054.048a.75.75 0 0 0-.218.509c-.028.364-.061.847-.078 1.339V5.219c0 .525-.015 1.064.017 1.596.017.262.049.523.096.782.038.204.112.4.218.579.196.303.482.536.819.666.164.073.333.132.507.176.144.035.292.057.435.078a15.027 15.027 0 0 0 1.174.111c.209.011.361.015.518.015.249.001.498-.014.745-.046l.098-.011c.124-.014.248-.034.37-.061.109-.025.216-.056.322-.091.232-.078.458-.174.675-.287.08-.043.157-.09.231-.142a2.194 2.194 0 0 0 .788-.866c.138-.275.239-.568.298-.871.052-.267.09-.537.113-.808.037-.37.044-.749.052-1.117v-.115c0-.453.013-.871.013-1.282a6.393 6.393 0 0 0-.144-1.365 3.244 3.244 0 0 0-.248-.705A1.54 1.54 0 0 0 6.724.97a2.141 2.141 0 0 0-.435-.29 6.006 6.006 0 0 0-.688-.261L5.497.384a10.262 10.262 0 0 0-.409-.128A6.985 6.985 0 0 0 3.782.008a6.322 6.322 0 0 0-.305-.009zM15.836 5.492h.385c.312.016.622.056.927.122.129.027.256.065.379.113.164.057.32.135.464.233a.908.908 0 0 1 .355.435 2.5 2.5 0 0 1 .2.682c.086.611.112 1.228.078 1.844 0 .29-.013.581-.026.871a8.71 8.71 0 0 1-.078.967c-.012.116-.038.23-.078.34a1.897 1.897 0 0 1-.122.272 1.747 1.747 0 0 1-.344.426 1.51 1.51 0 0 1-.388.218 1.723 1.723 0 0 1-.398.114c-.102.013-.202.03-.305.037a8.75 8.75 0 0 1-.871.015l-.457-.02-.218-.02a2.745 2.745 0 0 1-.3-.044 1.513 1.513 0 0 1-.564-.224.979.979 0 0 1-.263-.266 1.656 1.656 0 0 1-.157-.329 2.086 2.086 0 0 1-.102-.518 6.257 6.257 0 0 1-.035-.81c0-.599.024-1.199.033-1.798v-.986a2.665 2.665 0 0 1-.015-.357v-.078c0-.111 0-.218-.015-.331a.417.417 0 0 1 .144-.329.875.875 0 0 1 .387-.385 1.64 1.64 0 0 1 .25-.102 3.525 3.525 0 0 1 .692-.087l.442-.004zm-.777.817c-.05.009-.1.021-.148.037l-.048.028-.015.015V6.4c.017.276.033.553.039.832.017.58.032 1.165.044 1.755 0 .559 0 1.117.076 1.672.018.128.047.254.087.377v.015l.044.024c.102.034.207.06.313.078.266.03.533.05.801.065.273.018.547.018.821 0 .095-.016.188-.04.279-.072l.067-.039c.028-.027.055-.055.081-.085.032-.05.061-.101.087-.155a1.3 1.3 0 0 0 .052-.185c.046-.54.063-1.082.052-1.624a16.594 16.594 0 0 0-.05-1.713 3.197 3.197 0 0 0-.137-.586l-.022-.037-.035-.037a1.992 1.992 0 0 0-.218-.118c-.052-.02-.102-.039-.157-.054s-.165-.046-.248-.065a4.481 4.481 0 0 0-.475-.094c-.218-.026-.42-.048-.631-.061l-.374.002a2.257 2.257 0 0 0-.285.013z" style="fill:var(--color1, #03a9f4)"/><path fill="#99ddc6" d="M22.255 20.227c.281 0 .564 0 .845.02.142 0 .281.02.422.02h.392c.312.008.623.046.927.113.27.061.542.113.812.178.341.054.667.178.958.364.096.067.185.145.266.231.087.091.161.195.218.307.079.157.142.321.189.49.074.263.139.529.207.795.142.544.231 1.088.318 1.654.046.285.094.57.133.858.048.342.078.686.098 1.032.03.57.057 1.141.039 1.711 0 .318-.024.636-.041.953a9.7 9.7 0 0 1-.111 1.006c-.032.192-.089.38-.17.557a1.692 1.692 0 0 1-.638.705 3.15 3.15 0 0 1-.398.2h-.015l-.072.03-.03.013c-.133.054-.268.109-.405.157s-.272.087-.409.126l-.257.072a4.294 4.294 0 0 1-.54.094 9.22 9.22 0 0 1-.411.041c-.601.042-1.203.052-1.805.03a11.526 11.526 0 0 1-1.872-.183 7.068 7.068 0 0 1-.823-.205 4.709 4.709 0 0 1-.512-.192 1.62 1.62 0 0 1-.355-.202 1.258 1.258 0 0 1-.355-.368 1.244 1.244 0 0 1-.137-.348 3.978 3.978 0 0 1-.065-.533 8.82 8.82 0 0 1-.015-.829c.041-1.202.061-2.405.085-3.607.015-.744.03-1.489.037-2.233a.427.427 0 0 1-.111-.29 7.444 7.444 0 0 1 0-.845c-.007-.33.06-.657.196-.958.097-.196.248-.361.435-.475.138-.073.284-.131.435-.172.128-.037.257-.083.39-.111s.255-.059.383-.078c.128-.02.257-.041.385-.063.168-.026.335-.044.505-.059.274-.007.577-.007.873-.007zm-1.615 1.019-.331.048.072-.011a4.572 4.572 0 0 0-.381.089c-.087.024-.174.046-.259.076l-.078.041-.022.024c-.026.039-.05.076-.074.118s-.02.078-.028.12c-.017.183-.017.37-.02.555s0 .309 0 .464v.135c.013 1.189.039 2.379.065 3.568.013.616.024 1.23.039 1.844.013.535.028 1.071.091 1.602.015.121.04.24.074.357v.02l.057.054c.079.052.162.099.248.139.224.086.453.159.686.218.131.033.261.065.394.089s.307.052.462.074c.579.061 1.16.089 1.741.085h.845c.281 0 .516-.033.773-.063.252-.048.501-.113.744-.194.161-.048.318-.107.475-.17l.072-.033c.112-.05.219-.11.32-.178l.085-.081c.024-.037.046-.076.067-.115.032-.096.056-.194.072-.294.028-.271.042-.544.041-.816v-.956c0-.318-.013-.594-.028-.89-.03-.546-.057-1.088-.124-1.633-.052-.379-.113-.755-.163-1.132s-.122-.808-.218-1.21c-.044-.205-.087-.411-.137-.616s-.085-.35-.144-.52c-.022-.039-.044-.078-.067-.115a1.11 1.11 0 0 0-.096-.098 1.02 1.02 0 0 0-.107-.061 7.553 7.553 0 0 0-.81-.244 9.429 9.429 0 0 1-.435-.118 2.982 2.982 0 0 0-.364-.078c-.113-.013-.218-.022-.34-.03s-.25 0-.377-.017l-.403-.03c-.296-.02-.594-.037-.893-.05s-.572-.028-.858-.017a5.061 5.061 0 0 0-.668.052z" style="fill:var(--color2, #99ddc6)"/><path fill="#4d4962" d="M24.463 7.702h.218c.292 0 .583.02.871.037s.592.037.888.05c.296.013.559.046.84.063s.575.046.871.065c.318.011.634.061.94.148.161.055.317.123.466.205.171.087.323.206.448.35.105.125.194.263.263.411.067.159.128.318.181.483.087.263.15.533.189.808.047.329.073.66.078.993 0 .272-.017.544-.05.814-.033.327-.057.653-.115.977-.047.285-.12.564-.218.836-.058.158-.131.31-.218.455a2.18 2.18 0 0 1-.135.181.708.708 0 0 1-.094.111 1.63 1.63 0 0 1-.303.218c-.315.157-.66.246-1.012.261-.29.033-.579.057-.871.074s-.581.017-.871.02c-.29.002-.577 0-.871 0s-.612 0-.919-.017c-.307-.017-.555-.039-.832-.059s-.577-.048-.871-.083c-.198-.024-.396-.048-.592-.087a4.068 4.068 0 0 1-.435-.109 1.98 1.98 0 0 1-.988-.562 2.085 2.085 0 0 1-.205-.279c-.06-.103-.11-.21-.15-.322a2.51 2.51 0 0 1-.12-.568 4.17 4.17 0 0 1 0-.821c.022-.305.061-.61.102-.912l.085-.631c.041-.353.081-.703.139-1.051a3.373 3.373 0 0 1 .242-.79c.062-.124.138-.241.229-.346.11-.138.239-.26.383-.361l.063-.009.041-.026c.122-.071.249-.133.381-.183a2.462 2.462 0 0 1 1.021-.218.409.409 0 0 1 .205-.052h.063c.148-.02.294-.037.435-.046a.692.692 0 0 1 .224-.028zm-.788 1.191a2.002 2.002 0 0 0-.409.107 2.818 2.818 0 0 0-.414.218l-.044.028c-.03.028-.058.058-.085.089-.04.058-.075.118-.107.181-.058.183-.101.37-.131.559-.065.527-.107 1.058-.172 1.585a13.06 13.06 0 0 0-.076.884c-.015.23-.015.46 0 .69.015.063.03.126.05.189.022.041.046.081.072.12l.03.033c.062.039.127.075.194.107.173.068.35.123.531.165.194.046.394.072.592.102.239.03.479.054.718.085.298.039.594.063.895.078.59.033 1.182.039 1.774.048.539.011 1.078-.015 1.613-.076.1-.014.198-.038.294-.07l.091-.052.041-.044c.06-.091.112-.188.157-.287.085-.268.148-.543.189-.821.022-.178.037-.357.05-.536s.039-.39.054-.586c.015-.196.017-.405.015-.61s-.011-.394-.033-.59a5.628 5.628 0 0 0-.27-1.134 1.063 1.063 0 0 0-.081-.148l-.02-.02a1.92 1.92 0 0 0-.187-.107 2.3 2.3 0 0 0-.398-.109c-.218-.02-.435-.024-.636-.039-.244-.02-.488-.028-.731-.048-.285-.02-.57-.044-.855-.057s-.546-.026-.821-.044h-.135c-.59.033-1.178.044-1.759.107zM15.02 17.432v.161c0 .218-.013.435-.026.653s-.028.448-.039.673c-.011.224-.033.422-.046.636s-.035.435-.052.653a2.976 2.976 0 0 1-.111.714 2.026 2.026 0 0 1-.155.35 1.068 1.068 0 0 1-.266.342c-.094.08-.199.145-.311.196a3.754 3.754 0 0 1-.978.283c-.249.035-.5.054-.751.059a5.313 5.313 0 0 1-.618-.039c-.246-.024-.494-.041-.738-.087a3.454 3.454 0 0 1-.633-.168 2.055 2.055 0 0 1-.346-.17c-.048-.03-.091-.067-.135-.1a1.001 1.001 0 0 1-.085-.074 1.153 1.153 0 0 1-.17-.229c-.12-.239-.188-.5-.2-.766-.024-.218-.041-.435-.054-.653s-.013-.435-.015-.653c-.002-.218 0-.435 0-.653s0-.464.011-.697c.011-.233.03-.418.046-.629a12.728 12.728 0 0 1 .128-1.101c.022-.11.05-.219.083-.327.067-.287.219-.548.435-.749a1.46 1.46 0 0 1 .462-.268c.141-.048.287-.079.435-.091.206-.021.414-.021.62 0 .233.015.461.046.692.078l.477.063c.266.033.533.061.797.104a2.42 2.42 0 0 1 .598.185c.094.046.182.104.261.172.104.083.197.181.274.29l.026.041.02.03c.053.092.1.188.139.287a1.9 1.9 0 0 1 .165.775.32.32 0 0 1 .041.157v.048c.015.111.028.218.035.335-.017.059-.017.113-.017.168zm-.899-.596c0-.033 0-.065-.017-.096a1.821 1.821 0 0 0-.065-.218 2.15 2.15 0 0 0-.17-.313l-.024-.033a.665.665 0 0 0-.065-.065 1.174 1.174 0 0 0-.137-.081 3.113 3.113 0 0 0-.435-.1c-.398-.048-.799-.081-1.199-.128a10.505 10.505 0 0 0-.668-.059 4.133 4.133 0 0 0-.522 0c-.049.01-.097.023-.144.039a.63.63 0 0 0-.091.052l-.024.024c-.03.047-.058.096-.083.146-.05.131-.092.266-.124.403-.035.148-.054.298-.078.435-.022.183-.041.366-.065.546a9.846 9.846 0 0 0-.059.677c-.024.446-.028.895-.035 1.343a9.22 9.22 0 0 0 .057 1.221c.012.074.03.147.054.218a.45.45 0 0 0 .039.067l.033.033c.069.045.142.084.218.118.203.064.412.113.623.144.135.015.27.028.405.037s.294.03.435.041c.142.011.307.013.461 0a3.537 3.537 0 0 0 .883-.102c.147-.034.293-.076.435-.126a.932.932 0 0 0 .113-.059l.013-.015c.03-.045.057-.093.081-.141.037-.099.065-.201.083-.305.015-.159.017-.32.03-.479s.022-.37.035-.555c.013-.185.035-.435.044-.653s.02-.416.033-.623v-.102c-.013-.407-.022-.851-.067-1.291z" style="fill:var(--color3, #4d4962)"/></symbol><symbol id="twitter-icon-icon" viewBox="0 0 32 32"><path d="M31.816 6.061a.695.695 0 0 0-.835-.147 5.858 5.858 0 0 1-.889.321 6.259 6.259 0 0 0 1.057-2.036.695.695 0 0 0-1.072-.749 14.635 14.635 0 0 1-3.348 1.309 7.002 7.002 0 0 0-8.772-.678 6.903 6.903 0 0 0-3.005 6.379A16.473 16.473 0 0 1 3.415 4.246a.719.719 0 0 0-.591-.26.695.695 0 0 0-.556.339A6.734 6.734 0 0 0 1.5 9.552c.239.912.65 1.77 1.209 2.528a3.69 3.69 0 0 1-.707-.452.697.697 0 0 0-1.134.54 7.195 7.195 0 0 0 3.707 6.178 5.161 5.161 0 0 1-.896-.192.696.696 0 0 0-.835.952 7.592 7.592 0 0 0 5.27 4.313A12.259 12.259 0 0 1 .775 24.93a.697.697 0 0 0-.422 1.297 20.849 20.849 0 0 0 10.282 2.922 17.667 17.667 0 0 0 9.759-2.984c5.514-3.659 8.95-10.229 8.472-16.107a13.002 13.002 0 0 0 3.025-3.153.697.697 0 0 0-.075-.845z"/></symbol></defs></svg>